<svg width="268" height="142" viewBox="0 0 268 142" fill="none" xmlns="http://www.w3.org/2000/svg">
<path d="M17.5 24.572C17.5 19.8776 13.6944 16.072 9 16.072C4.30558 16.072 0.499997 19.8776 0.499997 24.572L17.5 24.572ZM17.5 98.572L17.5 24.572L0.499997 24.572L0.5 98.572L17.5 98.572Z" fill="#DDE6ED"/>
<path d="M9 24.572H28.9583C31.9311 24.572 34.849 25.373 37.4052 26.8907L38.048 27.2724C51.3102 35.1468 52.594 53.8565 40.5317 63.4686V63.4686C36.0241 67.0606 30.2891 68.7444 24.5552 68.1593L9 66.572" stroke="#DDE6ED" stroke-width="17" stroke-linecap="round"/>
<path d="M82.373 31.4352L80.4246 32.6267C61.1577 44.4096 61.3277 72.4527 80.736 84.0012L82.6926 85.1654C92.3922 90.9369 104.51 90.776 114.053 84.7489L115.888 83.5898C134.391 71.9036 134.559 44.9779 116.203 33.0621L114.359 31.8654C104.669 25.5752 92.2286 25.4079 82.373 31.4352Z" stroke="#DDE6ED" stroke-width="17"/>
<path d="M149 99.072L149.888 47.1341C149.961 42.8528 151.283 38.6862 153.692 35.1463L154.589 33.8283C163.565 20.6394 183.383 21.8584 190.675 36.0478V36.0478C192.203 39.0211 193 42.3158 193 45.6587L193 99.072" stroke="#DDE6ED" stroke-width="17"/>
<path d="M266.019 26.0717L251.399 25.5996C243.008 25.3286 234.744 27.7048 227.779 32.3914L226.417 33.3075C221.767 36.4364 218.182 40.91 216.142 46.1305L215.097 48.8026C211.751 57.3643 212.423 66.9756 216.928 74.9883V74.9883C222.753 85.3499 234.043 91.4105 245.898 90.5401L255.08 89.8659C257.17 89.7125 258.787 87.9722 258.787 85.8767L258.787 61.7633C258.787 61.2023 258.326 60.7511 257.765 60.7635L239.292 61.174" stroke="#DDE6ED" stroke-width="17"/>
<path d="M30 135.572L33.1962 119.591C33.4016 118.564 34.8469 118.504 35.1375 119.51L39.5393 134.746C39.8176 135.71 41.1824 135.71 41.4607 134.746L45.7997 119.727C46.094 118.708 47.5627 118.788 47.7455 119.832L50.5 135.572" stroke="#DDE6ED" stroke-width="4" stroke-linecap="round"/>
<path d="M60 119.572V130.239C60 132.062 60.6796 133.82 61.906 135.169V135.169C63.6127 137.046 66.5203 137.178 68.3906 135.464L68.5275 135.339C70.103 133.894 71 131.855 71 129.718V119.572" stroke="#DDE6ED" stroke-width="4" stroke-linecap="round"/>
<path d="M174 135.572L174 124.905C174 123.082 173.32 121.325 172.094 119.975V119.975C170.387 118.098 167.48 117.966 165.609 119.68L165.473 119.806C163.897 121.25 163 123.289 163 125.426L163 135.572" stroke="#DDE6ED" stroke-width="4" stroke-linecap="round"/>
<path d="M125.466 136.594L125.42 122.044C125.415 120.445 126.666 119.122 128.264 119.039L131.043 118.894C133.326 118.775 135.245 120.59 135.252 122.876L135.255 123.896C135.262 126.115 133.461 127.915 131.242 127.909L125.438 127.891" stroke="#DDE6ED" stroke-width="4" stroke-linecap="round"/>
<path d="M186 119.572V117.572H182V119.572H186ZM183 134.072C181.895 134.072 181 134.967 181 136.072C181 137.177 181.895 138.072 183 138.072V134.072ZM192.219 135.259L191.109 133.595L192.219 135.259ZM192.008 135.4L193.117 137.064L192.008 135.4ZM189.789 134.072H183V138.072H189.789V134.072ZM182 119.572V124.072H186V119.572H182ZM192 117.572V131.931H196V117.572H192ZM191.109 133.595L190.898 133.736L193.117 137.064L193.328 136.924L191.109 133.595ZM187 129.072H190V125.072H187V129.072ZM196 123.072V117.572H192V123.072H196ZM190 129.072C193.314 129.072 196 126.386 196 123.072H192C192 124.177 191.105 125.072 190 125.072V129.072ZM192 131.931C192 132.6 191.666 133.224 191.109 133.595L193.328 136.924C194.997 135.811 196 133.937 196 131.931H192ZM182 124.072C182 126.833 184.239 129.072 187 129.072V125.072C186.448 125.072 186 124.624 186 124.072H182ZM189.789 138.072C190.973 138.072 192.131 137.721 193.117 137.064L190.898 133.736C190.57 133.955 190.184 134.072 189.789 134.072V138.072Z" fill="#DDE6ED"/>
<path d="M213.5 119.572H206C204.343 119.572 203 120.915 203 122.572V128.072V132.072C203 134.281 204.791 136.072 207 136.072H213.5" stroke="#DDE6ED" stroke-width="4" stroke-linecap="round"/>
<path d="M203 127.572H213" stroke="#DDE6ED" stroke-width="4" stroke-linecap="round"/>
<path d="M99 136.572V121.572" stroke="#DDE6ED" stroke-width="4" stroke-linecap="round"/>
<path d="M92 119.572H107" stroke="#DDE6ED" stroke-width="4" stroke-linecap="round"/>
<path d="M90.7005 136.008L83.2222 136.049C81.0044 136.062 79.2001 134.267 79.2001 132.049L79.2004 119.572" stroke="#DDE6ED" stroke-width="4" stroke-linecap="round"/>
<path d="M156.17 136.008L148.691 136.049C146.474 136.062 144.669 134.267 144.669 132.049L144.67 119.572" stroke="#DDE6ED" stroke-width="4" stroke-linecap="round"/>
<path d="M223 136.572V119.572H229C230.259 119.572 231.445 120.165 232.2 121.172L232.363 121.39C233.402 122.775 233.784 124.545 233.408 126.235V126.235C233.15 127.397 232.382 128.381 231.317 128.914L230.711 129.217C229.639 129.752 228.899 130.78 228.73 131.965V131.965C228.583 132.988 228.878 134.025 229.539 134.819L229.801 135.133C230.561 136.045 231.686 136.572 232.873 136.572H234" stroke="#DDE6ED" stroke-width="4" stroke-linecap="round"/>
<path d="M116 119.572L116 136.572" stroke="#DDE6ED" stroke-width="5" stroke-linecap="round"/>
<line x1="164" y1="128.572" x2="174" y2="128.572" stroke="#DDE6ED" stroke-width="4"/>
</svg>
